<?xml version="1.0" encoding="UTF-8"?>
<svg id="Ebene_2" data-name="Ebene 2" xmlns="http://www.w3.org/2000/svg" viewBox="0 0 214 198">
  <defs>
    <style>
      .cls-1 {
        fill: #fff;
      }
    </style>
  </defs>
  <g id="Ebene_1-2" data-name="Ebene 1">
    <g id="bA9Fqe.tif">
      <g>
        <path class="cls-1" d="M213.67,104c-.98,10.07-6.37,24.77-12.9,32.52-15.59,18.51-47.3,21.35-65.17,4.53-1.5-1.41-1.84-3.55-3.42-4.05v11.99h-27.84V1h14.41c5.08,0,13.42,9.32,13.42,14.5v35.5c11.32-11.46,23.16-15.34,39.24-13.98,26.4,2.23,40.07,24.15,42.25,48.98.42,4.78.46,13.25,0,18ZM156.83,61.28c-13.12.93-21.63,10.55-23.54,23.32-3.36,22.43,4.26,46.04,31.11,42.31,28.22-3.92,29.57-68.25-7.56-65.63Z"/>
        <g>
          <path class="cls-1" d="M213.67,104v94H0V0h213.67v86c-2.18-24.84-15.86-46.76-42.25-48.98-16.08-1.36-27.92,2.53-39.24,13.98V15.5c0-5.18-8.33-14.5-13.42-14.5h-14.41v148h27.83v-11.99c1.59.5,1.92,2.64,3.43,4.05,17.87,16.82,49.58,13.98,65.17-4.53,6.53-7.75,11.92-22.45,12.9-32.52ZM114.29,160h-16.4c-.17,0-1.75-1.54-1.97-2.02l-.74-100.26c-15.49-28.06-61.65-30.42-81.1-5.06-33.68,43.93,1.16,127.33,61.77,91.16l7.62-6.83v43.5c0,1.89,3.88,9.9,5.42,11.55,1.25,1.34,7.67,4.95,8.99,4.95h15.4c-.32-.98.99-2.17.99-2.5v-34.5Z"/>
          <path class="cls-1" d="M156.83,61.28c37.13-2.62,35.78,61.71,7.56,65.63-26.84,3.73-34.46-19.88-31.11-42.31,1.91-12.77,10.42-22.39,23.54-23.32Z"/>
        </g>
        <g>
          <path class="cls-1" d="M114.29,160v34.5c0,.33-1.32,1.52-.99,2.5h-15.4c-1.32,0-7.75-3.62-8.99-4.95-1.54-1.65-5.42-9.66-5.42-11.55v-43.5l-7.62,6.83C15.24,180.01-19.59,96.6,14.08,52.67c19.45-25.36,65.61-23,81.1,5.06l.74,100.26c.22.47,1.8,2.02,1.97,2.02h16.4ZM53.46,61.27c-36.44,3.3-30.46,79.68,12.41,64.51,26.18-9.27,24.16-67.82-12.41-64.51Z"/>
          <path class="cls-1" d="M53.46,61.27c36.57-3.31,38.59,55.24,12.41,64.51-42.87,15.17-48.85-61.21-12.41-64.51Z"/>
        </g>
      </g>
    </g>
  </g>
</svg>